<svg xmlns="http://www.w3.org/2000/svg" xmlns:xlink="http://www.w3.org/1999/xlink" style="isolation:isolate" width="2234.613" height="562.395" viewBox="0 0 1675.96 421.796"><defs><clipPath id="_clipPath_BNnxH6y4cCJFWlIIMWFHWvWANkval9Ub"><rect width="1675.96" height="421.796"/></clipPath></defs><g clip-path="url(#_clipPath_BNnxH6y4cCJFWlIIMWFHWvWANkval9Ub)"><path fill="#09203E" fill-rule="evenodd" d="M 0 0 L 100.427 0 L 100.427 241.026 L 100.427 241.026 Q 100.427 282.379 119.036 304.237 L 119.036 304.237 L 119.036 304.237 Q 137.645 326.094 173.09 326.094 L 173.09 326.094 L 173.09 326.094 Q 208.535 326.094 227.143 304.237 L 227.143 304.237 L 227.143 304.237 Q 245.752 282.379 245.752 241.026 L 245.752 241.026 L 245.752 0 L 346.77 0 L 346.77 241.026 L 346.77 241.026 Q 346.77 300.101 323.731 340.568 L 323.731 340.568 L 323.731 340.568 Q 300.692 381.034 260.816 401.415 L 260.816 401.415 L 260.816 401.415 Q 220.941 421.796 170.727 421.796 L 170.727 421.796 L 170.727 421.796 Q 120.513 421.796 82.114 401.711 L 82.114 401.711 L 82.114 401.711 Q 43.715 381.625 21.857 340.863 L 21.857 340.863 L 21.857 340.863 Q 0 300.101 0 241.026 L 0 241.026 L 0 0 Z M 616.744 0 L 616.744 417.661 L 515.726 417.661 L 346.771 161.275 L 346.771 161.275 L 346.771 0 L 515.726 258.749 L 515.726 0 L 616.744 0 Z M 938.767 227.998 L 938.767 419.896 L 892.353 419.896 L 814.725 302.097 L 814.725 419.896 L 768.311 419.896 L 768.311 227.998 L 814.725 227.998 L 892.353 346.883 L 892.353 227.998 L 938.767 227.998 Z M 1090.223 264.912 L 1017.209 264.912 L 1017.209 305.083 L 1082.08 305.083 L 1082.08 340.097 L 1017.209 340.097 L 1017.209 382.711 L 1090.223 382.711 L 1090.223 419.896 L 970.795 419.896 L 970.795 227.998 L 1090.223 227.998 L 1090.223 264.912 Z M 1254.435 365.882 L 1254.435 365.882 Q 1254.435 381.082 1246.699 393.839 L 1246.699 393.839 L 1246.699 393.839 Q 1238.964 406.596 1223.9 414.196 L 1223.9 414.196 L 1223.9 414.196 Q 1208.836 421.796 1187.393 421.796 L 1187.393 421.796 L 1187.393 421.796 Q 1155.094 421.796 1134.194 406.053 L 1134.194 406.053 L 1134.194 406.053 Q 1113.294 390.31 1111.394 362.082 L 1111.394 362.082 L 1160.793 362.082 L 1160.793 362.082 Q 1161.879 372.939 1168.529 379.182 L 1168.529 379.182 L 1168.529 379.182 Q 1175.179 385.425 1185.493 385.425 L 1185.493 385.425 L 1185.493 385.425 Q 1194.45 385.425 1199.607 380.539 L 1199.607 380.539 L 1199.607 380.539 Q 1204.764 375.653 1204.764 367.511 L 1204.764 367.511 L 1204.764 367.511 Q 1204.764 360.182 1200.015 355.297 L 1200.015 355.297 L 1200.015 355.297 Q 1195.264 350.411 1188.207 347.289 L 1188.207 347.289 L 1188.207 347.289 Q 1181.15 344.168 1168.665 339.825 L 1168.665 339.825 L 1168.665 339.825 Q 1150.479 333.583 1138.943 327.747 L 1138.943 327.747 L 1138.943 327.747 Q 1127.408 321.911 1119.129 310.376 L 1119.129 310.376 L 1119.129 310.376 Q 1110.851 298.84 1110.851 280.383 L 1110.851 280.383 L 1110.851 280.383 Q 1110.851 263.283 1119.537 250.798 L 1119.537 250.798 L 1119.537 250.798 Q 1128.222 238.312 1143.558 231.662 L 1143.558 231.662 L 1143.558 231.662 Q 1158.893 225.012 1178.707 225.012 L 1178.707 225.012 L 1178.707 225.012 Q 1210.736 225.012 1229.6 240.212 L 1229.6 240.212 L 1229.6 240.212 Q 1248.464 255.412 1250.907 282.012 L 1250.907 282.012 L 1200.693 282.012 L 1200.693 282.012 Q 1199.336 272.512 1193.772 266.947 L 1193.772 266.947 L 1193.772 266.947 Q 1188.207 261.383 1178.707 261.383 L 1178.707 261.383 L 1178.707 261.383 Q 1170.565 261.383 1165.543 265.726 L 1165.543 265.726 L 1165.543 265.726 Q 1160.522 270.069 1160.522 278.483 L 1160.522 278.483 L 1160.522 278.483 Q 1160.522 285.269 1165 290.019 L 1165 290.019 L 1165 290.019 Q 1169.479 294.769 1176.265 297.754 L 1176.265 297.754 L 1176.265 297.754 Q 1183.05 300.74 1195.807 305.354 L 1195.807 305.354 L 1195.807 305.354 Q 1214.264 311.597 1225.936 317.704 L 1225.936 317.704 L 1225.936 317.704 Q 1237.607 323.811 1246.021 335.483 L 1246.021 335.483 L 1246.021 335.483 Q 1254.435 347.154 1254.435 365.882 L 1254.435 365.882 Z M 1267.735 227.998 L 1418.105 227.998 L 1418.105 264.912 L 1365.992 264.912 L 1365.992 419.896 L 1319.306 419.896 L 1319.306 264.912 L 1267.735 264.912 L 1267.735 227.998 Z M 767.226 0 L 813.368 0 L 813.368 110.742 L 813.368 110.742 Q 813.368 129.742 821.918 139.784 L 821.918 139.784 L 821.918 139.784 Q 830.468 149.827 846.753 149.827 L 846.753 149.827 L 846.753 149.827 Q 863.039 149.827 871.589 139.784 L 871.589 139.784 L 871.589 139.784 Q 880.139 129.742 880.139 110.742 L 880.139 110.742 L 880.139 0 L 926.553 0 L 926.553 110.742 L 926.553 110.742 Q 926.553 137.885 915.967 156.477 L 915.967 156.477 L 915.967 156.477 Q 905.382 175.07 887.06 184.434 L 887.06 184.434 L 887.06 184.434 Q 868.739 193.798 845.668 193.798 L 845.668 193.798 L 845.668 193.798 Q 822.596 193.798 804.954 184.57 L 804.954 184.57 L 804.954 184.57 Q 787.311 175.341 777.268 156.613 L 777.268 156.613 L 777.268 156.613 Q 767.226 137.885 767.226 110.742 L 767.226 110.742 L 767.226 0 Z M 1107.322 191.898 L 1056.023 191.898 L 1014.495 119.427 L 1003.909 119.427 L 1003.909 191.898 L 957.495 191.898 L 957.495 0 L 1036.751 0 L 1036.751 0 Q 1059.551 0 1075.294 7.871 L 1075.294 7.871 L 1075.294 7.871 Q 1091.037 15.743 1098.908 29.45 L 1098.908 29.45 L 1098.908 29.45 Q 1106.779 43.157 1106.779 60.8 L 1106.779 60.8 L 1106.779 60.8 Q 1106.779 81.699 1095.244 96.356 L 1095.244 96.356 L 1095.244 96.356 Q 1083.708 111.013 1061.723 116.442 L 1061.723 116.442 L 1107.322 191.898 Z M 1003.909 39.085 L 1003.909 87.671 L 1032.68 87.671 L 1032.68 87.671 Q 1046.523 87.671 1053.037 81.564 L 1053.037 81.564 L 1053.037 81.564 Q 1059.551 75.457 1059.551 63.514 L 1059.551 63.514 L 1059.551 63.514 Q 1059.551 52.114 1052.902 45.599 L 1052.902 45.599 L 1052.902 45.599 Q 1046.251 39.085 1032.68 39.085 L 1032.68 39.085 L 1003.909 39.085 Z M 1245.207 93.099 L 1245.207 93.099 Q 1262.578 97.171 1272.756 109.928 L 1272.756 109.928 L 1272.756 109.928 Q 1282.935 122.685 1282.935 139.513 L 1282.935 139.513 L 1282.935 139.513 Q 1282.935 164.213 1266.514 178.055 L 1266.514 178.055 L 1266.514 178.055 Q 1250.093 191.898 1219.421 191.898 L 1219.421 191.898 L 1130.122 191.898 L 1130.122 0 L 1217.25 0 L 1217.25 0 Q 1246.564 0 1262.578 12.757 L 1262.578 12.757 L 1262.578 12.757 Q 1278.592 25.514 1278.592 49.128 L 1278.592 49.128 L 1278.592 49.128 Q 1278.592 66.499 1269.364 78.035 L 1269.364 78.035 L 1269.364 78.035 Q 1260.135 89.57 1245.207 93.099 L 1245.207 93.099 Z M 1176.536 37.185 L 1176.536 78.442 L 1206.936 78.442 L 1206.936 78.442 Q 1231.093 78.442 1231.093 57.814 L 1231.093 57.814 L 1231.093 57.814 Q 1231.093 37.185 1206.393 37.185 L 1206.393 37.185 L 1176.536 37.185 Z M 1209.65 154.17 L 1209.65 154.17 Q 1235.436 154.17 1235.436 132.999 L 1235.436 132.999 L 1235.436 132.999 Q 1235.436 122.685 1228.65 116.849 L 1228.65 116.849 L 1228.65 116.849 Q 1221.864 111.013 1209.379 111.013 L 1209.379 111.013 L 1176.536 111.013 L 1176.536 154.17 L 1209.65 154.17 Z M 1438.191 191.898 L 1426.248 156.884 L 1354.32 156.884 L 1342.377 191.898 L 1293.52 191.898 L 1363.82 1.357 L 1417.291 1.357 L 1487.59 191.898 L 1438.191 191.898 Z M 1366.263 121.599 L 1414.305 121.599 L 1390.42 51.028 L 1366.263 121.599 Z M 1675.96 0 L 1675.96 191.898 L 1629.546 191.898 L 1551.918 74.099 L 1551.918 191.898 L 1505.504 191.898 L 1505.504 0 L 1551.918 0 L 1629.546 118.884 L 1629.546 0 L 1675.96 0 Z"/></g></svg>