<svg xmlns="http://www.w3.org/2000/svg" xmlns:xlink="http://www.w3.org/1999/xlink" style="isolation:isolate" width="1000pt" height="464.827" viewBox="0 0 1000 348.62"><defs><clipPath id="_clipPath_0YKmIZ2C26IKb0SQXWmVtQypc5sCBzaB"><rect width="1000" height="348.62"/></clipPath></defs><g clip-path="url(#_clipPath_0YKmIZ2C26IKb0SQXWmVtQypc5sCBzaB)"><rect width="348.62" height="348.62" x="0" y="0" fill="#09203E" transform="matrix(1,0,0,1,0,0)"/><path fill="#FFF" fill-rule="evenodd" d="M 62.322 97.721 L 98.793 97.721 L 98.793 185.251 L 98.793 185.251 Q 98.793 200.269 105.551 208.207 L 105.551 208.207 L 105.551 208.207 Q 112.309 216.144 125.181 216.144 L 125.181 216.144 L 125.181 216.144 Q 138.053 216.144 144.811 208.207 L 144.811 208.207 L 144.811 208.207 Q 151.569 200.269 151.569 185.251 L 151.569 185.251 L 151.569 97.721 L 188.255 97.721 L 188.255 185.251 L 188.255 185.251 Q 188.255 206.705 179.888 221.4 L 179.888 221.4 L 179.888 221.4 Q 171.521 236.096 157.04 243.498 L 157.04 243.498 L 157.04 243.498 Q 142.559 250.899 124.323 250.899 L 124.323 250.899 L 124.323 250.899 Q 106.088 250.899 92.143 243.605 L 92.143 243.605 L 92.143 243.605 Q 78.198 236.311 70.26 221.508 L 70.26 221.508 L 70.26 221.508 Q 62.322 206.705 62.322 185.251 L 62.322 185.251 L 62.322 97.721 Z M 286.297 97.721 L 286.297 249.397 L 249.612 249.397 L 188.255 156.289 L 188.255 156.289 L 188.255 97.721 L 249.612 191.687 L 249.612 97.721 L 286.297 97.721 Z"/><path fill="#09203E" d="M 473.213 122.086 L 473.213 191.775 L 456.357 191.775 L 428.166 148.996 L 428.166 191.775 L 411.311 191.775 L 411.311 122.086 L 428.166 122.086 L 456.357 165.26 L 456.357 122.086 L 473.213 122.086 Z M 528.215 135.491 L 501.7 135.491 L 501.7 150.08 L 525.258 150.08 L 525.258 162.795 L 501.7 162.795 L 501.7 178.271 L 528.215 178.271 L 528.215 191.775 L 484.844 191.775 L 484.844 122.086 L 528.215 122.086 L 528.215 135.491 Z M 587.85 172.16 L 587.85 172.16 Q 587.85 177.679 585.041 182.312 L 585.041 182.312 L 585.041 182.312 Q 582.231 186.945 576.761 189.705 L 576.761 189.705 L 576.761 189.705 Q 571.29 192.465 563.503 192.465 L 563.503 192.465 L 563.503 192.465 Q 551.773 192.465 544.183 186.748 L 544.183 186.748 L 544.183 186.748 Q 536.593 181.031 535.903 170.78 L 535.903 170.78 L 553.843 170.78 L 553.843 170.78 Q 554.237 174.722 556.652 176.989 L 556.652 176.989 L 556.652 176.989 Q 559.067 179.257 562.813 179.257 L 562.813 179.257 L 562.813 179.257 Q 566.066 179.257 567.939 177.482 L 567.939 177.482 L 567.939 177.482 Q 569.812 175.708 569.812 172.751 L 569.812 172.751 L 569.812 172.751 Q 569.812 170.09 568.087 168.315 L 568.087 168.315 L 568.087 168.315 Q 566.362 166.541 563.799 165.407 L 563.799 165.407 L 563.799 165.407 Q 561.236 164.274 556.702 162.697 L 556.702 162.697 L 556.702 162.697 Q 550.097 160.43 545.908 158.31 L 545.908 158.31 L 545.908 158.31 Q 541.719 156.191 538.713 152.002 L 538.713 152.002 L 538.713 152.002 Q 535.706 147.813 535.706 141.11 L 535.706 141.11 L 535.706 141.11 Q 535.706 134.9 538.861 130.366 L 538.861 130.366 L 538.861 130.366 Q 542.015 125.832 547.584 123.416 L 547.584 123.416 L 547.584 123.416 Q 553.153 121.002 560.349 121.002 L 560.349 121.002 L 560.349 121.002 Q 571.98 121.002 578.831 126.522 L 578.831 126.522 L 578.831 126.522 Q 585.681 132.041 586.569 141.701 L 586.569 141.701 L 568.333 141.701 L 568.333 141.701 Q 567.84 138.251 565.82 136.231 L 565.82 136.231 L 565.82 136.231 Q 563.799 134.21 560.349 134.21 L 560.349 134.21 L 560.349 134.21 Q 557.392 134.21 555.568 135.787 L 555.568 135.787 L 555.568 135.787 Q 553.745 137.364 553.745 140.42 L 553.745 140.42 L 553.745 140.42 Q 553.745 142.884 555.371 144.609 L 555.371 144.609 L 555.371 144.609 Q 556.997 146.334 559.462 147.418 L 559.462 147.418 L 559.462 147.418 Q 561.926 148.503 566.559 150.178 L 566.559 150.178 L 566.559 150.178 Q 573.262 152.446 577.5 154.663 L 577.5 154.663 L 577.5 154.663 Q 581.739 156.881 584.794 161.12 L 584.794 161.12 L 584.794 161.12 Q 587.85 165.358 587.85 172.16 L 587.85 172.16 Z M 592.68 122.086 L 647.288 122.086 L 647.288 135.491 L 628.362 135.491 L 628.362 191.775 L 611.408 191.775 L 611.408 135.491 L 592.68 135.491 L 592.68 122.086 Z M 410.916 39.287 L 427.673 39.287 L 427.673 79.504 L 427.673 79.504 Q 427.673 86.403 430.778 90.051 L 430.778 90.051 L 430.778 90.051 Q 433.883 93.698 439.797 93.698 L 439.797 93.698 L 439.797 93.698 Q 445.712 93.698 448.817 90.051 L 448.817 90.051 L 448.817 90.051 Q 451.922 86.403 451.922 79.504 L 451.922 79.504 L 451.922 39.287 L 468.777 39.287 L 468.777 79.504 L 468.777 79.504 Q 468.777 89.361 464.933 96.113 L 464.933 96.113 L 464.933 96.113 Q 461.089 102.865 454.435 106.265 L 454.435 106.265 L 454.435 106.265 Q 447.782 109.666 439.403 109.666 L 439.403 109.666 L 439.403 109.666 Q 431.025 109.666 424.618 106.315 L 424.618 106.315 L 424.618 106.315 Q 418.21 102.963 414.563 96.162 L 414.563 96.162 L 414.563 96.162 Q 410.916 89.361 410.916 79.504 L 410.916 79.504 L 410.916 39.287 Z M 534.425 108.976 L 515.795 108.976 L 500.714 82.658 L 496.87 82.658 L 496.87 108.976 L 480.014 108.976 L 480.014 39.287 L 508.797 39.287 L 508.797 39.287 Q 517.076 39.287 522.793 42.145 L 522.793 42.145 L 522.793 42.145 Q 528.511 45.004 531.369 49.982 L 531.369 49.982 L 531.369 49.982 Q 534.228 54.959 534.228 61.367 L 534.228 61.367 L 534.228 61.367 Q 534.228 68.956 530.038 74.279 L 530.038 74.279 L 530.038 74.279 Q 525.849 79.602 517.865 81.573 L 517.865 81.573 L 534.425 108.976 Z M 496.87 53.481 L 496.87 71.125 L 507.318 71.125 L 507.318 71.125 Q 512.345 71.125 514.711 68.907 L 514.711 68.907 L 514.711 68.907 Q 517.076 66.689 517.076 62.352 L 517.076 62.352 L 517.076 62.352 Q 517.076 58.212 514.662 55.847 L 514.662 55.847 L 514.662 55.847 Q 512.247 53.481 507.318 53.481 L 507.318 53.481 L 496.87 53.481 Z M 584.499 73.096 L 584.499 73.096 Q 590.807 74.575 594.503 79.208 L 594.503 79.208 L 594.503 79.208 Q 598.2 83.841 598.2 89.952 L 598.2 89.952 L 598.2 89.952 Q 598.2 98.922 592.236 103.949 L 592.236 103.949 L 592.236 103.949 Q 586.273 108.976 575.134 108.976 L 575.134 108.976 L 542.705 108.976 L 542.705 39.287 L 574.346 39.287 L 574.346 39.287 Q 584.991 39.287 590.807 43.92 L 590.807 43.92 L 590.807 43.92 Q 596.623 48.552 596.623 57.128 L 596.623 57.128 L 596.623 57.128 Q 596.623 63.437 593.271 67.626 L 593.271 67.626 L 593.271 67.626 Q 589.92 71.815 584.499 73.096 L 584.499 73.096 Z M 559.56 52.791 L 559.56 67.774 L 570.6 67.774 L 570.6 67.774 Q 579.373 67.774 579.373 60.282 L 579.373 60.282 L 579.373 60.282 Q 579.373 52.791 570.403 52.791 L 570.403 52.791 L 559.56 52.791 Z M 571.586 95.275 L 571.586 95.275 Q 580.95 95.275 580.95 87.586 L 580.95 87.586 L 580.95 87.586 Q 580.95 83.841 578.486 81.721 L 578.486 81.721 L 578.486 81.721 Q 576.021 79.602 571.487 79.602 L 571.487 79.602 L 559.56 79.602 L 559.56 95.275 L 571.586 95.275 Z M 654.582 108.976 L 650.245 96.26 L 624.124 96.26 L 619.787 108.976 L 602.044 108.976 L 627.574 39.78 L 646.992 39.78 L 672.522 108.976 L 654.582 108.976 Z M 628.461 83.446 L 645.908 83.446 L 637.234 57.818 L 628.461 83.446 Z M 740.93 39.287 L 740.93 108.976 L 724.074 108.976 L 695.883 66.197 L 695.883 108.976 L 679.028 108.976 L 679.028 39.287 L 695.883 39.287 L 724.074 82.461 L 724.074 39.287 L 740.93 39.287 Z"/><path fill="#323644" d="M 589.96 273.171 L 593.62 273.171 L 593.62 295.254 L 589.96 295.254 L 589.96 290.065 L 589.96 290.065 Q 589.115 292.76 586.963 294.188 L 586.963 294.188 L 586.963 294.188 Q 584.811 295.616 581.955 295.616 L 581.955 295.616 L 581.955 295.616 Q 578.133 295.616 575.76 293.142 L 575.76 293.142 L 575.76 293.142 Q 573.387 290.669 573.387 286.043 L 573.387 286.043 L 573.387 273.171 L 577.047 273.171 L 577.047 285.681 L 577.047 285.681 Q 577.047 288.979 578.737 290.769 L 578.737 290.769 L 578.737 290.769 Q 580.426 292.559 583.322 292.559 L 583.322 292.559 L 583.322 292.559 Q 586.339 292.559 588.149 290.608 L 588.149 290.608 L 588.149 290.608 Q 589.96 288.657 589.96 284.916 L 589.96 284.916 L 589.96 273.171 L 589.96 273.171 Z M 603.153 277.636 L 603.153 277.636 Q 604.24 275.343 606.331 274.076 L 606.331 274.076 L 606.331 274.076 Q 608.423 272.809 611.319 272.809 L 611.319 272.809 L 611.319 276.791 L 610.193 276.791 L 610.193 276.791 Q 607.096 276.791 605.124 278.38 L 605.124 278.38 L 605.124 278.38 Q 603.153 279.969 603.153 283.629 L 603.153 283.629 L 603.153 295.254 L 599.493 295.254 L 599.493 273.171 L 603.153 273.171 L 603.153 277.636 L 603.153 277.636 Z M 627.128 272.889 L 627.128 272.889 Q 630.064 272.889 632.357 274.257 L 632.357 274.257 L 632.357 274.257 Q 634.65 275.624 635.957 278.199 L 635.957 278.199 L 635.957 278.199 Q 637.265 280.773 637.265 284.233 L 637.265 284.233 L 637.265 284.233 Q 637.265 287.692 635.957 290.246 L 635.957 290.246 L 635.957 290.246 Q 634.65 292.801 632.357 294.168 L 632.357 294.168 L 632.357 294.168 Q 630.064 295.536 627.128 295.536 L 627.128 295.536 L 627.128 295.536 Q 623.91 295.536 621.677 293.907 L 621.677 293.907 L 621.677 293.907 Q 619.445 292.278 618.6 289.623 L 618.6 289.623 L 618.6 295.254 L 614.939 295.254 L 614.939 265.488 L 618.6 265.488 L 618.6 278.802 L 618.6 278.802 Q 619.445 276.147 621.677 274.518 L 621.677 274.518 L 621.677 274.518 Q 623.91 272.889 627.128 272.889 L 627.128 272.889 L 627.128 272.889 Z M 626.082 276.147 L 626.082 276.147 Q 623.95 276.147 622.22 277.133 L 622.22 277.133 L 622.22 277.133 Q 620.491 278.118 619.525 279.969 L 619.525 279.969 L 619.525 279.969 Q 618.56 281.819 618.56 284.233 L 618.56 284.233 L 618.56 284.233 Q 618.56 286.646 619.525 288.476 L 619.525 288.476 L 619.525 288.476 Q 620.491 290.307 622.22 291.312 L 622.22 291.312 L 622.22 291.312 Q 623.95 292.318 626.082 292.318 L 626.082 292.318 L 626.082 292.318 Q 629.501 292.318 631.532 290.166 L 631.532 290.166 L 631.532 290.166 Q 633.564 288.014 633.564 284.233 L 633.564 284.233 L 633.564 284.233 Q 633.564 280.451 631.532 278.299 L 631.532 278.299 L 631.532 278.299 Q 629.501 276.147 626.082 276.147 L 626.082 276.147 L 626.082 276.147 Z M 651.102 272.889 L 651.102 272.889 Q 654.32 272.889 656.553 274.498 L 656.553 274.498 L 656.553 274.498 Q 658.785 276.107 659.67 278.802 L 659.67 278.802 L 659.67 273.171 L 663.331 273.171 L 663.331 295.254 L 659.67 295.254 L 659.67 289.623 L 659.67 289.623 Q 658.785 292.318 656.553 293.927 L 656.553 293.927 L 656.553 293.927 Q 654.32 295.536 651.102 295.536 L 651.102 295.536 L 651.102 295.536 Q 648.166 295.536 645.873 294.168 L 645.873 294.168 L 645.873 294.168 Q 643.58 292.801 642.273 290.246 L 642.273 290.246 L 642.273 290.246 Q 640.965 287.692 640.965 284.233 L 640.965 284.233 L 640.965 284.233 Q 640.965 280.773 642.273 278.199 L 642.273 278.199 L 642.273 278.199 Q 643.58 275.624 645.873 274.257 L 645.873 274.257 L 645.873 274.257 Q 648.166 272.889 651.102 272.889 L 651.102 272.889 L 651.102 272.889 Z M 652.148 276.147 L 652.148 276.147 Q 648.769 276.147 646.738 278.299 L 646.738 278.299 L 646.738 278.299 Q 644.706 280.451 644.706 284.233 L 644.706 284.233 L 644.706 284.233 Q 644.706 288.014 646.738 290.166 L 646.738 290.166 L 646.738 290.166 Q 648.769 292.318 652.148 292.318 L 652.148 292.318 L 652.148 292.318 Q 654.32 292.318 656.03 291.312 L 656.03 291.312 L 656.03 291.312 Q 657.739 290.307 658.705 288.476 L 658.705 288.476 L 658.705 288.476 Q 659.67 286.646 659.67 284.233 L 659.67 284.233 L 659.67 284.233 Q 659.67 281.819 658.705 279.969 L 658.705 279.969 L 658.705 279.969 Q 657.739 278.118 656.03 277.133 L 656.03 277.133 L 656.03 277.133 Q 654.32 276.147 652.148 276.147 L 652.148 276.147 L 652.148 276.147 Z M 668.52 266.694 L 668.52 266.694 Q 668.52 265.689 669.204 265.065 L 669.204 265.065 L 669.204 265.065 Q 669.887 264.442 671.014 264.442 L 671.014 264.442 L 671.014 264.442 Q 672.14 264.442 672.824 265.065 L 672.824 265.065 L 672.824 265.065 Q 673.508 265.689 673.508 266.694 L 673.508 266.694 L 673.508 266.694 Q 673.508 267.7 672.824 268.323 L 672.824 268.323 L 672.824 268.323 Q 672.14 268.947 671.014 268.947 L 671.014 268.947 L 671.014 268.947 Q 669.887 268.947 669.204 268.323 L 669.204 268.323 L 669.204 268.323 Q 668.52 267.7 668.52 266.694 L 668.52 266.694 L 668.52 266.694 Z M 669.163 273.171 L 672.824 273.171 L 672.824 295.254 L 669.163 295.254 L 669.163 273.171 L 669.163 273.171 Z M 690.322 272.809 L 690.322 272.809 Q 694.183 272.809 696.557 275.282 L 696.557 275.282 L 696.557 275.282 Q 698.93 277.756 698.93 282.422 L 698.93 282.422 L 698.93 295.254 L 695.27 295.254 L 695.27 282.744 L 695.27 282.744 Q 695.27 279.446 693.58 277.676 L 693.58 277.676 L 693.58 277.676 Q 691.891 275.906 688.994 275.906 L 688.994 275.906 L 688.994 275.906 Q 685.977 275.906 684.167 277.857 L 684.167 277.857 L 684.167 277.857 Q 682.357 279.808 682.357 283.549 L 682.357 283.549 L 682.357 295.254 L 678.697 295.254 L 678.697 273.171 L 682.357 273.171 L 682.357 278.4 L 682.357 278.4 Q 683.202 275.705 685.354 274.257 L 685.354 274.257 L 685.354 274.257 Q 687.506 272.809 690.322 272.809 L 690.322 272.809 L 690.322 272.809 Z M 434.167 282.986 L 434.167 282.986 Q 434.167 284.152 434.006 284.997 L 434.006 284.997 L 416.347 284.997 L 416.347 284.997 Q 416.467 288.778 418.499 290.669 L 418.499 290.669 L 418.499 290.669 Q 420.53 292.559 423.467 292.559 L 423.467 292.559 L 423.467 292.559 Q 426.122 292.559 427.912 291.212 L 427.912 291.212 L 427.912 291.212 Q 429.702 289.864 430.104 287.611 L 430.104 287.611 L 434.006 287.611 L 434.006 287.611 Q 433.603 289.904 432.216 291.714 L 432.216 291.714 L 432.216 291.714 Q 430.828 293.525 428.616 294.53 L 428.616 294.53 L 428.616 294.53 Q 426.403 295.536 423.628 295.536 L 423.628 295.536 L 423.628 295.536 Q 420.45 295.536 417.996 294.168 L 417.996 294.168 L 417.996 294.168 Q 415.542 292.801 414.154 290.246 L 414.154 290.246 L 414.154 290.246 Q 412.767 287.692 412.767 284.233 L 412.767 284.233 L 412.767 284.233 Q 412.767 280.773 414.154 278.199 L 414.154 278.199 L 414.154 278.199 Q 415.542 275.624 417.996 274.257 L 417.996 274.257 L 417.996 274.257 Q 420.45 272.889 423.628 272.889 L 423.628 272.889 L 423.628 272.889 Q 426.846 272.889 429.239 274.257 L 429.239 274.257 L 429.239 274.257 Q 431.632 275.624 432.9 277.917 L 432.9 277.917 L 432.9 277.917 Q 434.167 280.21 434.167 282.986 L 434.167 282.986 L 434.167 282.986 Z M 430.466 283.227 L 430.466 283.227 Q 430.587 280.773 429.661 279.124 L 429.661 279.124 L 429.661 279.124 Q 428.736 277.475 427.127 276.67 L 427.127 276.67 L 427.127 276.67 Q 425.518 275.866 423.628 275.866 L 423.628 275.866 L 423.628 275.866 Q 420.611 275.866 418.559 277.736 L 418.559 277.736 L 418.559 277.736 Q 416.508 279.607 416.347 283.227 L 416.347 283.227 L 430.466 283.227 L 430.466 283.227 Z M 445.872 272.889 L 445.872 272.889 Q 449.613 272.889 451.886 274.84 L 451.886 274.84 L 451.886 274.84 Q 454.159 276.791 454.641 280.089 L 454.641 280.089 L 451.142 280.089 L 451.142 280.089 Q 450.9 278.118 449.513 276.851 L 449.513 276.851 L 449.513 276.851 Q 448.125 275.584 445.792 275.584 L 445.792 275.584 L 445.792 275.584 Q 443.821 275.584 442.715 276.529 L 442.715 276.529 L 442.715 276.529 Q 441.608 277.475 441.608 279.084 L 441.608 279.084 L 441.608 279.084 Q 441.608 280.29 442.352 281.035 L 442.352 281.035 L 442.352 281.035 Q 443.097 281.779 444.203 282.161 L 444.203 282.161 L 444.203 282.161 Q 445.309 282.543 447.24 282.986 L 447.24 282.986 L 447.24 282.986 Q 449.694 283.549 451.202 284.132 L 451.202 284.132 L 451.202 284.132 Q 452.711 284.715 453.776 286.002 L 453.776 286.002 L 453.776 286.002 Q 454.842 287.29 454.842 289.462 L 454.842 289.462 L 454.842 289.462 Q 454.842 292.157 452.811 293.846 L 452.811 293.846 L 452.811 293.846 Q 450.78 295.536 447.401 295.536 L 447.401 295.536 L 447.401 295.536 Q 443.459 295.536 440.965 293.645 L 440.965 293.645 L 440.965 293.645 Q 438.471 291.755 438.028 288.376 L 438.028 288.376 L 441.568 288.376 L 441.568 288.376 Q 441.769 290.387 443.318 291.634 L 443.318 291.634 L 443.318 291.634 Q 444.867 292.881 447.401 292.881 L 447.401 292.881 L 447.401 292.881 Q 449.291 292.881 450.357 291.916 L 450.357 291.916 L 450.357 291.916 Q 451.423 290.95 451.423 289.381 L 451.423 289.381 L 451.423 289.381 Q 451.423 288.094 450.659 287.33 L 450.659 287.33 L 450.659 287.33 Q 449.895 286.566 448.768 286.163 L 448.768 286.163 L 448.768 286.163 Q 447.642 285.761 445.671 285.319 L 445.671 285.319 L 445.671 285.319 Q 443.217 284.755 441.749 284.192 L 441.749 284.192 L 441.749 284.192 Q 440.281 283.629 439.255 282.402 L 439.255 282.402 L 439.255 282.402 Q 438.229 281.175 438.229 279.084 L 438.229 279.084 L 438.229 279.084 Q 438.229 276.308 440.281 274.599 L 440.281 274.599 L 440.281 274.599 Q 442.332 272.889 445.872 272.889 L 445.872 272.889 L 445.872 272.889 Z M 471.938 272.889 L 471.938 272.889 Q 474.875 272.889 477.168 274.257 L 477.168 274.257 L 477.168 274.257 Q 479.46 275.624 480.768 278.199 L 480.768 278.199 L 480.768 278.199 Q 482.075 280.773 482.075 284.233 L 482.075 284.233 L 482.075 284.233 Q 482.075 287.692 480.768 290.246 L 480.768 290.246 L 480.768 290.246 Q 479.46 292.801 477.168 294.168 L 477.168 294.168 L 477.168 294.168 Q 474.875 295.536 471.938 295.536 L 471.938 295.536 L 471.938 295.536 Q 468.72 295.536 466.488 293.907 L 466.488 293.907 L 466.488 293.907 Q 464.255 292.278 463.41 289.623 L 463.41 289.623 L 463.41 305.713 L 459.75 305.713 L 459.75 273.171 L 463.41 273.171 L 463.41 278.802 L 463.41 278.802 Q 464.255 276.147 466.488 274.518 L 466.488 274.518 L 466.488 274.518 Q 468.72 272.889 471.938 272.889 L 471.938 272.889 L 471.938 272.889 Z M 470.892 276.147 L 470.892 276.147 Q 468.76 276.147 467.031 277.133 L 467.031 277.133 L 467.031 277.133 Q 465.301 278.118 464.336 279.969 L 464.336 279.969 L 464.336 279.969 Q 463.37 281.819 463.37 284.233 L 463.37 284.233 L 463.37 284.233 Q 463.37 286.646 464.336 288.476 L 464.336 288.476 L 464.336 288.476 Q 465.301 290.307 467.031 291.312 L 467.031 291.312 L 467.031 291.312 Q 468.76 292.318 470.892 292.318 L 470.892 292.318 L 470.892 292.318 Q 474.312 292.318 476.343 290.166 L 476.343 290.166 L 476.343 290.166 Q 478.374 288.014 478.374 284.233 L 478.374 284.233 L 478.374 284.233 Q 478.374 280.451 476.343 278.299 L 476.343 278.299 L 476.343 278.299 Q 474.312 276.147 470.892 276.147 L 470.892 276.147 L 470.892 276.147 Z M 495.913 272.889 L 495.913 272.889 Q 499.131 272.889 501.363 274.498 L 501.363 274.498 L 501.363 274.498 Q 503.596 276.107 504.481 278.802 L 504.481 278.802 L 504.481 273.171 L 508.141 273.171 L 508.141 295.254 L 504.481 295.254 L 504.481 289.623 L 504.481 289.623 Q 503.596 292.318 501.363 293.927 L 501.363 293.927 L 501.363 293.927 Q 499.131 295.536 495.913 295.536 L 495.913 295.536 L 495.913 295.536 Q 492.976 295.536 490.683 294.168 L 490.683 294.168 L 490.683 294.168 Q 488.39 292.801 487.083 290.246 L 487.083 290.246 L 487.083 290.246 Q 485.776 287.692 485.776 284.233 L 485.776 284.233 L 485.776 284.233 Q 485.776 280.773 487.083 278.199 L 487.083 278.199 L 487.083 278.199 Q 488.39 275.624 490.683 274.257 L 490.683 274.257 L 490.683 274.257 Q 492.976 272.889 495.913 272.889 L 495.913 272.889 L 495.913 272.889 Z M 496.958 276.147 L 496.958 276.147 Q 493.58 276.147 491.548 278.299 L 491.548 278.299 L 491.548 278.299 Q 489.517 280.451 489.517 284.233 L 489.517 284.233 L 489.517 284.233 Q 489.517 288.014 491.548 290.166 L 491.548 290.166 L 491.548 290.166 Q 493.58 292.318 496.958 292.318 L 496.958 292.318 L 496.958 292.318 Q 499.131 292.318 500.84 291.312 L 500.84 291.312 L 500.84 291.312 Q 502.55 290.307 503.515 288.476 L 503.515 288.476 L 503.515 288.476 Q 504.481 286.646 504.481 284.233 L 504.481 284.233 L 504.481 284.233 Q 504.481 281.819 503.515 279.969 L 503.515 279.969 L 503.515 279.969 Q 502.55 278.118 500.84 277.133 L 500.84 277.133 L 500.84 277.133 Q 499.131 276.147 496.958 276.147 L 496.958 276.147 L 496.958 276.147 Z M 523.749 272.889 L 523.749 272.889 Q 527.972 272.889 530.748 275.142 L 530.748 275.142 L 530.748 275.142 Q 533.523 277.394 534.167 281.175 L 534.167 281.175 L 530.305 281.175 L 530.305 281.175 Q 529.903 278.802 528.113 277.455 L 528.113 277.455 L 528.113 277.455 Q 526.323 276.107 523.668 276.107 L 523.668 276.107 L 523.668 276.107 Q 521.737 276.107 520.148 276.992 L 520.148 276.992 L 520.148 276.992 Q 518.559 277.877 517.594 279.707 L 517.594 279.707 L 517.594 279.707 Q 516.629 281.537 516.629 284.233 L 516.629 284.233 L 516.629 284.233 Q 516.629 286.928 517.594 288.758 L 517.594 288.758 L 517.594 288.758 Q 518.559 290.588 520.148 291.473 L 520.148 291.473 L 520.148 291.473 Q 521.737 292.358 523.668 292.358 L 523.668 292.358 L 523.668 292.358 Q 526.323 292.358 528.113 290.99 L 528.113 290.99 L 528.113 290.99 Q 529.903 289.623 530.305 287.249 L 530.305 287.249 L 534.167 287.249 L 534.167 287.249 Q 533.523 291.071 530.748 293.303 L 530.748 293.303 L 530.748 293.303 Q 527.972 295.536 523.749 295.536 L 523.749 295.536 L 523.749 295.536 Q 520.571 295.536 518.117 294.168 L 518.117 294.168 L 518.117 294.168 Q 515.663 292.801 514.275 290.246 L 514.275 290.246 L 514.275 290.246 Q 512.888 287.692 512.888 284.233 L 512.888 284.233 L 512.888 284.233 Q 512.888 280.773 514.275 278.199 L 514.275 278.199 L 514.275 278.199 Q 515.663 275.624 518.117 274.257 L 518.117 274.257 L 518.117 274.257 Q 520.571 272.889 523.749 272.889 L 523.749 272.889 L 523.749 272.889 Z M 559.268 282.986 L 559.268 282.986 Q 559.268 284.152 559.107 284.997 L 559.107 284.997 L 541.448 284.997 L 541.448 284.997 Q 541.568 288.778 543.6 290.669 L 543.6 290.669 L 543.6 290.669 Q 545.631 292.559 548.568 292.559 L 548.568 292.559 L 548.568 292.559 Q 551.222 292.559 553.013 291.212 L 553.013 291.212 L 553.013 291.212 Q 554.803 289.864 555.205 287.611 L 555.205 287.611 L 559.107 287.611 L 559.107 287.611 Q 558.704 289.904 557.317 291.714 L 557.317 291.714 L 557.317 291.714 Q 555.929 293.525 553.716 294.53 L 553.716 294.53 L 553.716 294.53 Q 551.504 295.536 548.729 295.536 L 548.729 295.536 L 548.729 295.536 Q 545.551 295.536 543.097 294.168 L 543.097 294.168 L 543.097 294.168 Q 540.643 292.801 539.255 290.246 L 539.255 290.246 L 539.255 290.246 Q 537.868 287.692 537.868 284.233 L 537.868 284.233 L 537.868 284.233 Q 537.868 280.773 539.255 278.199 L 539.255 278.199 L 539.255 278.199 Q 540.643 275.624 543.097 274.257 L 543.097 274.257 L 543.097 274.257 Q 545.551 272.889 548.729 272.889 L 548.729 272.889 L 548.729 272.889 Q 551.947 272.889 554.34 274.257 L 554.34 274.257 L 554.34 274.257 Q 556.733 275.624 558 277.917 L 558 277.917 L 558 277.917 Q 559.268 280.21 559.268 282.986 L 559.268 282.986 L 559.268 282.986 Z M 555.567 283.227 L 555.567 283.227 Q 555.687 280.773 554.762 279.124 L 554.762 279.124 L 554.762 279.124 Q 553.837 277.475 552.228 276.67 L 552.228 276.67 L 552.228 276.67 Q 550.619 275.866 548.729 275.866 L 548.729 275.866 L 548.729 275.866 Q 545.712 275.866 543.66 277.736 L 543.66 277.736 L 543.66 277.736 Q 541.609 279.607 541.448 283.227 L 541.448 283.227 L 555.567 283.227 L 555.567 283.227 Z M 880.749 233.75 L 887.668 251.932 L 894.506 233.75 L 898.448 233.75 L 889.799 255.833 L 885.455 255.833 L 876.807 233.75 L 880.749 233.75 L 880.749 233.75 Z M 912.044 233.468 L 912.044 233.468 Q 915.222 233.468 917.736 234.836 L 917.736 234.836 L 917.736 234.836 Q 920.25 236.203 921.678 238.778 L 921.678 238.778 L 921.678 238.778 Q 923.106 241.352 923.106 244.812 L 923.106 244.812 L 923.106 244.812 Q 923.106 248.271 921.678 250.825 L 921.678 250.825 L 921.678 250.825 Q 920.25 253.38 917.736 254.747 L 917.736 254.747 L 917.736 254.747 Q 915.222 256.115 912.044 256.115 L 912.044 256.115 L 912.044 256.115 Q 908.866 256.115 906.352 254.747 L 906.352 254.747 L 906.352 254.747 Q 903.838 253.38 902.39 250.825 L 902.39 250.825 L 902.39 250.825 Q 900.942 248.271 900.942 244.812 L 900.942 244.812 L 900.942 244.812 Q 900.942 241.352 902.39 238.778 L 902.39 238.778 L 902.39 238.778 Q 903.838 236.203 906.352 234.836 L 906.352 234.836 L 906.352 234.836 Q 908.866 233.468 912.044 233.468 L 912.044 233.468 L 912.044 233.468 Z M 912.044 236.686 L 912.044 236.686 Q 910.073 236.686 908.404 237.571 L 908.404 237.571 L 908.404 237.571 Q 906.734 238.456 905.709 240.286 L 905.709 240.286 L 905.709 240.286 Q 904.683 242.117 904.683 244.812 L 904.683 244.812 L 904.683 244.812 Q 904.683 247.467 905.709 249.297 L 905.709 249.297 L 905.709 249.297 Q 906.734 251.127 908.404 252.012 L 908.404 252.012 L 908.404 252.012 Q 910.073 252.897 912.044 252.897 L 912.044 252.897 L 912.044 252.897 Q 914.015 252.897 915.685 252.012 L 915.685 252.012 L 915.685 252.012 Q 917.354 251.127 918.38 249.297 L 918.38 249.297 L 918.38 249.297 Q 919.405 247.467 919.405 244.812 L 919.405 244.812 L 919.405 244.812 Q 919.405 242.117 918.38 240.286 L 918.38 240.286 L 918.38 240.286 Q 917.354 238.456 915.685 237.571 L 915.685 237.571 L 915.685 237.571 Q 914.015 236.686 912.044 236.686 L 912.044 236.686 L 912.044 236.686 Z M 936.179 252.615 L 938.432 252.615 L 938.432 255.833 L 935.697 255.833 L 935.697 255.833 Q 932.318 255.833 930.648 254.224 L 930.648 254.224 L 930.648 254.224 Q 928.979 252.615 928.979 248.834 L 928.979 248.834 L 928.979 236.927 L 925.681 236.927 L 925.681 233.75 L 928.979 233.75 L 928.979 228.239 L 932.68 228.239 L 932.68 233.75 L 938.392 233.75 L 938.392 236.927 L 932.68 236.927 L 932.68 248.915 L 932.68 248.915 Q 932.68 251.047 933.464 251.831 L 933.464 251.831 L 933.464 251.831 Q 934.249 252.615 936.179 252.615 L 936.179 252.615 L 936.179 252.615 Z M 946.558 238.215 L 946.558 238.215 Q 947.644 235.922 949.735 234.655 L 949.735 234.655 L 949.735 234.655 Q 951.827 233.388 954.723 233.388 L 954.723 233.388 L 954.723 237.37 L 953.597 237.37 L 953.597 237.37 Q 950.5 237.37 948.529 238.959 L 948.529 238.959 L 948.529 238.959 Q 946.558 240.548 946.558 244.208 L 946.558 244.208 L 946.558 255.833 L 942.897 255.833 L 942.897 233.75 L 946.558 233.75 L 946.558 238.215 L 946.558 238.215 Z M 978.657 243.565 L 978.657 243.565 Q 978.657 244.731 978.496 245.576 L 978.496 245.576 L 960.838 245.576 L 960.838 245.576 Q 960.958 249.357 962.99 251.248 L 962.99 251.248 L 962.99 251.248 Q 965.021 253.138 967.957 253.138 L 967.957 253.138 L 967.957 253.138 Q 970.612 253.138 972.402 251.791 L 972.402 251.791 L 972.402 251.791 Q 974.192 250.443 974.595 248.191 L 974.595 248.191 L 978.496 248.191 L 978.496 248.191 Q 978.094 250.483 976.706 252.294 L 976.706 252.294 L 976.706 252.294 Q 975.319 254.104 973.106 255.109 L 973.106 255.109 L 973.106 255.109 Q 970.894 256.115 968.118 256.115 L 968.118 256.115 L 968.118 256.115 Q 964.94 256.115 962.487 254.747 L 962.487 254.747 L 962.487 254.747 Q 960.033 253.38 958.645 250.825 L 958.645 250.825 L 958.645 250.825 Q 957.257 248.271 957.257 244.812 L 957.257 244.812 L 957.257 244.812 Q 957.257 241.352 958.645 238.778 L 958.645 238.778 L 958.645 238.778 Q 960.033 236.203 962.487 234.836 L 962.487 234.836 L 962.487 234.836 Q 964.94 233.468 968.118 233.468 L 968.118 233.468 L 968.118 233.468 Q 971.336 233.468 973.73 234.836 L 973.73 234.836 L 973.73 234.836 Q 976.123 236.203 977.39 238.496 L 977.39 238.496 L 977.39 238.496 Q 978.657 240.789 978.657 243.565 L 978.657 243.565 L 978.657 243.565 Z M 974.957 243.806 L 974.957 243.806 Q 975.077 241.352 974.152 239.703 L 974.152 239.703 L 974.152 239.703 Q 973.227 238.054 971.618 237.249 L 971.618 237.249 L 971.618 237.249 Q 970.009 236.445 968.118 236.445 L 968.118 236.445 L 968.118 236.445 Q 965.101 236.445 963.05 238.315 L 963.05 238.315 L 963.05 238.315 Q 960.998 240.186 960.838 243.806 L 960.838 243.806 L 974.957 243.806 L 974.957 243.806 Z M 689.477 243.565 L 689.477 243.565 Q 689.477 244.731 689.316 245.576 L 689.316 245.576 L 671.657 245.576 L 671.657 245.576 Q 671.778 249.357 673.809 251.248 L 673.809 251.248 L 673.809 251.248 Q 675.841 253.138 678.777 253.138 L 678.777 253.138 L 678.777 253.138 Q 681.432 253.138 683.222 251.791 L 683.222 251.791 L 683.222 251.791 Q 685.012 250.443 685.414 248.191 L 685.414 248.191 L 689.316 248.191 L 689.316 248.191 Q 688.914 250.483 687.526 252.294 L 687.526 252.294 L 687.526 252.294 Q 686.138 254.104 683.926 255.109 L 683.926 255.109 L 683.926 255.109 Q 681.714 256.115 678.938 256.115 L 678.938 256.115 L 678.938 256.115 Q 675.76 256.115 673.307 254.747 L 673.307 254.747 L 673.307 254.747 Q 670.853 253.38 669.465 250.825 L 669.465 250.825 L 669.465 250.825 Q 668.077 248.271 668.077 244.812 L 668.077 244.812 L 668.077 244.812 Q 668.077 241.352 669.465 238.778 L 669.465 238.778 L 669.465 238.778 Q 670.853 236.203 673.307 234.836 L 673.307 234.836 L 673.307 234.836 Q 675.76 233.468 678.938 233.468 L 678.938 233.468 L 678.938 233.468 Q 682.156 233.468 684.549 234.836 L 684.549 234.836 L 684.549 234.836 Q 686.943 236.203 688.21 238.496 L 688.21 238.496 L 688.21 238.496 Q 689.477 240.789 689.477 243.565 L 689.477 243.565 L 689.477 243.565 Z M 685.776 243.806 L 685.776 243.806 Q 685.897 241.352 684.972 239.703 L 684.972 239.703 L 684.972 239.703 Q 684.047 238.054 682.438 237.249 L 682.438 237.249 L 682.438 237.249 Q 680.829 236.445 678.938 236.445 L 678.938 236.445 L 678.938 236.445 Q 675.921 236.445 673.87 238.315 L 673.87 238.315 L 673.87 238.315 Q 671.818 240.186 671.657 243.806 L 671.657 243.806 L 685.776 243.806 L 685.776 243.806 Z M 705.889 233.388 L 705.889 233.388 Q 709.751 233.388 712.124 235.862 L 712.124 235.862 L 712.124 235.862 Q 714.497 238.335 714.497 243.002 L 714.497 243.002 L 714.497 255.833 L 710.837 255.833 L 710.837 243.323 L 710.837 243.323 Q 710.837 240.025 709.147 238.255 L 709.147 238.255 L 709.147 238.255 Q 707.458 236.485 704.562 236.485 L 704.562 236.485 L 704.562 236.485 Q 701.545 236.485 699.735 238.436 L 699.735 238.436 L 699.735 238.436 Q 697.924 240.387 697.924 244.128 L 697.924 244.128 L 697.924 255.833 L 694.264 255.833 L 694.264 233.75 L 697.924 233.75 L 697.924 238.979 L 697.924 238.979 Q 698.769 236.284 700.921 234.836 L 700.921 234.836 L 700.921 234.836 Q 703.073 233.388 705.889 233.388 L 705.889 233.388 L 705.889 233.388 Z M 727.048 233.468 L 727.048 233.468 Q 730.789 233.468 733.061 235.419 L 733.061 235.419 L 733.061 235.419 Q 735.334 237.37 735.817 240.668 L 735.817 240.668 L 732.317 240.668 L 732.317 240.668 Q 732.076 238.697 730.688 237.43 L 730.688 237.43 L 730.688 237.43 Q 729.3 236.163 726.967 236.163 L 726.967 236.163 L 726.967 236.163 Q 724.996 236.163 723.89 237.108 L 723.89 237.108 L 723.89 237.108 Q 722.784 238.054 722.784 239.663 L 722.784 239.663 L 722.784 239.663 Q 722.784 240.87 723.528 241.614 L 723.528 241.614 L 723.528 241.614 Q 724.272 242.358 725.378 242.74 L 725.378 242.74 L 725.378 242.74 Q 726.484 243.122 728.415 243.565 L 728.415 243.565 L 728.415 243.565 Q 730.869 244.128 732.377 244.711 L 732.377 244.711 L 732.377 244.711 Q 733.886 245.294 734.952 246.582 L 734.952 246.582 L 734.952 246.582 Q 736.018 247.869 736.018 250.041 L 736.018 250.041 L 736.018 250.041 Q 736.018 252.736 733.986 254.426 L 733.986 254.426 L 733.986 254.426 Q 731.955 256.115 728.576 256.115 L 728.576 256.115 L 728.576 256.115 Q 724.634 256.115 722.14 254.224 L 722.14 254.224 L 722.14 254.224 Q 719.646 252.334 719.204 248.955 L 719.204 248.955 L 722.743 248.955 L 722.743 248.955 Q 722.945 250.966 724.493 252.213 L 724.493 252.213 L 724.493 252.213 Q 726.042 253.46 728.576 253.46 L 728.576 253.46 L 728.576 253.46 Q 730.467 253.46 731.533 252.495 L 731.533 252.495 L 731.533 252.495 Q 732.599 251.529 732.599 249.961 L 732.599 249.961 L 732.599 249.961 Q 732.599 248.673 731.834 247.909 L 731.834 247.909 L 731.834 247.909 Q 731.07 247.145 729.944 246.742 L 729.944 246.742 L 729.944 246.742 Q 728.818 246.34 726.846 245.898 L 726.846 245.898 L 726.846 245.898 Q 724.393 245.335 722.925 244.771 L 722.925 244.771 L 722.925 244.771 Q 721.456 244.208 720.431 242.981 L 720.431 242.981 L 720.431 242.981 Q 719.405 241.755 719.405 239.663 L 719.405 239.663 L 719.405 239.663 Q 719.405 236.887 721.456 235.178 L 721.456 235.178 L 721.456 235.178 Q 723.508 233.468 727.048 233.468 L 727.048 233.468 L 727.048 233.468 Z M 761.239 243.565 L 761.239 243.565 Q 761.239 244.731 761.078 245.576 L 761.078 245.576 L 743.419 245.576 L 743.419 245.576 Q 743.54 249.357 745.571 251.248 L 745.571 251.248 L 745.571 251.248 Q 747.603 253.138 750.539 253.138 L 750.539 253.138 L 750.539 253.138 Q 753.194 253.138 754.984 251.791 L 754.984 251.791 L 754.984 251.791 Q 756.774 250.443 757.176 248.191 L 757.176 248.191 L 761.078 248.191 L 761.078 248.191 Q 760.676 250.483 759.288 252.294 L 759.288 252.294 L 759.288 252.294 Q 757.9 254.104 755.688 255.109 L 755.688 255.109 L 755.688 255.109 Q 753.476 256.115 750.7 256.115 L 750.7 256.115 L 750.7 256.115 Q 747.522 256.115 745.069 254.747 L 745.069 254.747 L 745.069 254.747 Q 742.615 253.38 741.227 250.825 L 741.227 250.825 L 741.227 250.825 Q 739.839 248.271 739.839 244.812 L 739.839 244.812 L 739.839 244.812 Q 739.839 241.352 741.227 238.778 L 741.227 238.778 L 741.227 238.778 Q 742.615 236.203 745.069 234.836 L 745.069 234.836 L 745.069 234.836 Q 747.522 233.468 750.7 233.468 L 750.7 233.468 L 750.7 233.468 Q 753.918 233.468 756.312 234.836 L 756.312 234.836 L 756.312 234.836 Q 758.705 236.203 759.972 238.496 L 759.972 238.496 L 759.972 238.496 Q 761.239 240.789 761.239 243.565 L 761.239 243.565 L 761.239 243.565 Z M 757.538 243.806 L 757.538 243.806 Q 757.659 241.352 756.734 239.703 L 756.734 239.703 L 756.734 239.703 Q 755.809 238.054 754.2 237.249 L 754.2 237.249 L 754.2 237.249 Q 752.591 236.445 750.7 236.445 L 750.7 236.445 L 750.7 236.445 Q 747.683 236.445 745.632 238.315 L 745.632 238.315 L 745.632 238.315 Q 743.58 240.186 743.419 243.806 L 743.419 243.806 L 757.538 243.806 L 757.538 243.806 Z M 793.178 233.388 L 793.178 233.388 Q 797.04 233.388 799.393 235.862 L 799.393 235.862 L 799.393 235.862 Q 801.746 238.335 801.746 243.002 L 801.746 243.002 L 801.746 255.833 L 798.086 255.833 L 798.086 243.323 L 798.086 243.323 Q 798.086 240.065 796.497 238.335 L 796.497 238.335 L 796.497 238.335 Q 794.908 236.606 792.132 236.606 L 792.132 236.606 L 792.132 236.606 Q 789.236 236.606 787.486 238.516 L 787.486 238.516 L 787.486 238.516 Q 785.736 240.427 785.736 244.128 L 785.736 244.128 L 785.736 255.833 L 782.076 255.833 L 782.076 243.323 L 782.076 243.323 Q 782.076 240.065 780.467 238.335 L 780.467 238.335 L 780.467 238.335 Q 778.858 236.606 776.123 236.606 L 776.123 236.606 L 776.123 236.606 Q 773.186 236.606 771.436 238.516 L 771.436 238.516 L 771.436 238.516 Q 769.687 240.427 769.687 244.128 L 769.687 244.128 L 769.687 255.833 L 766.026 255.833 L 766.026 233.75 L 769.687 233.75 L 769.687 238.778 L 769.687 238.778 Q 770.491 236.163 772.563 234.775 L 772.563 234.775 L 772.563 234.775 Q 774.634 233.388 777.329 233.388 L 777.329 233.388 L 777.329 233.388 Q 780.145 233.388 782.217 234.816 L 782.217 234.816 L 782.217 234.816 Q 784.288 236.244 785.173 239.019 L 785.173 239.019 L 785.173 239.019 Q 786.098 236.324 788.271 234.856 L 788.271 234.856 L 788.271 234.856 Q 790.443 233.388 793.178 233.388 L 793.178 233.388 L 793.178 233.388 Z M 819.606 233.468 L 819.606 233.468 Q 822.543 233.468 824.836 234.836 L 824.836 234.836 L 824.836 234.836 Q 827.128 236.203 828.436 238.778 L 828.436 238.778 L 828.436 238.778 Q 829.743 241.352 829.743 244.812 L 829.743 244.812 L 829.743 244.812 Q 829.743 248.271 828.436 250.825 L 828.436 250.825 L 828.436 250.825 Q 827.128 253.38 824.836 254.747 L 824.836 254.747 L 824.836 254.747 Q 822.543 256.115 819.606 256.115 L 819.606 256.115 L 819.606 256.115 Q 816.388 256.115 814.156 254.486 L 814.156 254.486 L 814.156 254.486 Q 811.923 252.857 811.078 250.202 L 811.078 250.202 L 811.078 255.833 L 807.418 255.833 L 807.418 226.067 L 811.078 226.067 L 811.078 239.381 L 811.078 239.381 Q 811.923 236.726 814.156 235.097 L 814.156 235.097 L 814.156 235.097 Q 816.388 233.468 819.606 233.468 L 819.606 233.468 L 819.606 233.468 Z M 818.56 236.726 L 818.56 236.726 Q 816.428 236.726 814.699 237.712 L 814.699 237.712 L 814.699 237.712 Q 812.969 238.697 812.004 240.548 L 812.004 240.548 L 812.004 240.548 Q 811.038 242.398 811.038 244.812 L 811.038 244.812 L 811.038 244.812 Q 811.038 247.225 812.004 249.055 L 812.004 249.055 L 812.004 249.055 Q 812.969 250.886 814.699 251.891 L 814.699 251.891 L 814.699 251.891 Q 816.428 252.897 818.56 252.897 L 818.56 252.897 L 818.56 252.897 Q 821.98 252.897 824.011 250.745 L 824.011 250.745 L 824.011 250.745 Q 826.042 248.593 826.042 244.812 L 826.042 244.812 L 826.042 244.812 Q 826.042 241.03 824.011 238.878 L 824.011 238.878 L 824.011 238.878 Q 821.98 236.726 818.56 236.726 L 818.56 236.726 L 818.56 236.726 Z M 834.53 226.067 L 838.19 226.067 L 838.19 255.833 L 834.53 255.833 L 834.53 226.067 L 834.53 226.067 Z M 864.377 243.565 L 864.377 243.565 Q 864.377 244.731 864.216 245.576 L 864.216 245.576 L 846.557 245.576 L 846.557 245.576 Q 846.678 249.357 848.709 251.248 L 848.709 251.248 L 848.709 251.248 Q 850.741 253.138 853.677 253.138 L 853.677 253.138 L 853.677 253.138 Q 856.332 253.138 858.122 251.791 L 858.122 251.791 L 858.122 251.791 Q 859.912 250.443 860.314 248.191 L 860.314 248.191 L 864.216 248.191 L 864.216 248.191 Q 863.814 250.483 862.426 252.294 L 862.426 252.294 L 862.426 252.294 Q 861.038 254.104 858.826 255.109 L 858.826 255.109 L 858.826 255.109 Q 856.614 256.115 853.838 256.115 L 853.838 256.115 L 853.838 256.115 Q 850.66 256.115 848.206 254.747 L 848.206 254.747 L 848.206 254.747 Q 845.753 253.38 844.365 250.825 L 844.365 250.825 L 844.365 250.825 Q 842.977 248.271 842.977 244.812 L 842.977 244.812 L 842.977 244.812 Q 842.977 241.352 844.365 238.778 L 844.365 238.778 L 844.365 238.778 Q 845.753 236.203 848.206 234.836 L 848.206 234.836 L 848.206 234.836 Q 850.66 233.468 853.838 233.468 L 853.838 233.468 L 853.838 233.468 Q 857.056 233.468 859.449 234.836 L 859.449 234.836 L 859.449 234.836 Q 861.843 236.203 863.11 238.496 L 863.11 238.496 L 863.11 238.496 Q 864.377 240.789 864.377 243.565 L 864.377 243.565 L 864.377 243.565 Z M 860.676 243.806 L 860.676 243.806 Q 860.797 241.352 859.872 239.703 L 859.872 239.703 L 859.872 239.703 Q 858.947 238.054 857.338 237.249 L 857.338 237.249 L 857.338 237.249 Q 855.729 236.445 853.838 236.445 L 853.838 236.445 L 853.838 236.445 Q 850.821 236.445 848.77 238.315 L 848.77 238.315 L 848.77 238.315 Q 846.718 240.186 846.557 243.806 L 846.557 243.806 L 860.676 243.806 L 860.676 243.806 Z M 433.04 255.833 L 428.897 255.833 L 421.496 244.249 L 417.513 244.249 L 417.513 255.833 L 413.853 255.833 L 413.853 227.475 L 423.185 227.475 L 423.185 227.475 Q 428.012 227.475 430.426 229.787 L 430.426 229.787 L 430.426 229.787 Q 432.839 232.1 432.839 235.922 L 432.839 235.922 L 432.839 235.922 Q 432.839 239.381 430.908 241.493 L 430.908 241.493 L 430.908 241.493 Q 428.978 243.605 425.317 244.128 L 425.317 244.128 L 433.04 255.833 L 433.04 255.833 Z M 417.513 230.652 L 417.513 241.594 L 422.863 241.594 L 422.863 241.594 Q 429.098 241.594 429.098 236.123 L 429.098 236.123 L 429.098 236.123 Q 429.098 230.652 422.863 230.652 L 422.863 230.652 L 417.513 230.652 L 417.513 230.652 Z M 457.618 243.565 L 457.618 243.565 Q 457.618 244.731 457.457 245.576 L 457.457 245.576 L 439.798 245.576 L 439.798 245.576 Q 439.919 249.357 441.95 251.248 L 441.95 251.248 L 441.95 251.248 Q 443.982 253.138 446.918 253.138 L 446.918 253.138 L 446.918 253.138 Q 449.573 253.138 451.363 251.791 L 451.363 251.791 L 451.363 251.791 Q 453.153 250.443 453.555 248.191 L 453.555 248.191 L 457.457 248.191 L 457.457 248.191 Q 457.055 250.483 455.667 252.294 L 455.667 252.294 L 455.667 252.294 Q 454.279 254.104 452.067 255.109 L 452.067 255.109 L 452.067 255.109 Q 449.855 256.115 447.079 256.115 L 447.079 256.115 L 447.079 256.115 Q 443.901 256.115 441.447 254.747 L 441.447 254.747 L 441.447 254.747 Q 438.994 253.38 437.606 250.825 L 437.606 250.825 L 437.606 250.825 Q 436.218 248.271 436.218 244.812 L 436.218 244.812 L 436.218 244.812 Q 436.218 241.352 437.606 238.778 L 437.606 238.778 L 437.606 238.778 Q 438.994 236.203 441.447 234.836 L 441.447 234.836 L 441.447 234.836 Q 443.901 233.468 447.079 233.468 L 447.079 233.468 L 447.079 233.468 Q 450.297 233.468 452.69 234.836 L 452.69 234.836 L 452.69 234.836 Q 455.084 236.203 456.351 238.496 L 456.351 238.496 L 456.351 238.496 Q 457.618 240.789 457.618 243.565 L 457.618 243.565 L 457.618 243.565 Z M 453.917 243.806 L 453.917 243.806 Q 454.038 241.352 453.113 239.703 L 453.113 239.703 L 453.113 239.703 Q 452.188 238.054 450.579 237.249 L 450.579 237.249 L 450.579 237.249 Q 448.97 236.445 447.079 236.445 L 447.079 236.445 L 447.079 236.445 Q 444.062 236.445 442.011 238.315 L 442.011 238.315 L 442.011 238.315 Q 439.959 240.186 439.798 243.806 L 439.798 243.806 L 453.917 243.806 L 453.917 243.806 Z M 453.555 224.337 L 453.555 227.314 L 444.987 232.02 L 444.987 229.405 L 453.555 224.337 L 453.555 224.337 Z M 461.761 227.273 L 461.761 227.273 Q 461.761 226.268 462.445 225.644 L 462.445 225.644 L 462.445 225.644 Q 463.129 225.021 464.255 225.021 L 464.255 225.021 L 464.255 225.021 Q 465.382 225.021 466.065 225.644 L 466.065 225.644 L 466.065 225.644 Q 466.749 226.268 466.749 227.273 L 466.749 227.273 L 466.749 227.273 Q 466.749 228.279 466.065 228.903 L 466.065 228.903 L 466.065 228.903 Q 465.382 229.526 464.255 229.526 L 464.255 229.526 L 464.255 229.526 Q 463.129 229.526 462.445 228.903 L 462.445 228.903 L 462.445 228.903 Q 461.761 228.279 461.761 227.273 L 461.761 227.273 L 461.761 227.273 Z M 462.405 233.75 L 466.065 233.75 L 466.065 255.833 L 462.405 255.833 L 462.405 233.75 L 462.405 233.75 Z M 483.563 233.388 L 483.563 233.388 Q 487.425 233.388 489.798 235.862 L 489.798 235.862 L 489.798 235.862 Q 492.172 238.335 492.172 243.002 L 492.172 243.002 L 492.172 255.833 L 488.511 255.833 L 488.511 243.323 L 488.511 243.323 Q 488.511 240.025 486.822 238.255 L 486.822 238.255 L 486.822 238.255 Q 485.132 236.485 482.236 236.485 L 482.236 236.485 L 482.236 236.485 Q 479.219 236.485 477.409 238.436 L 477.409 238.436 L 477.409 238.436 Q 475.599 240.387 475.599 244.128 L 475.599 244.128 L 475.599 255.833 L 471.938 255.833 L 471.938 233.75 L 475.599 233.75 L 475.599 238.979 L 475.599 238.979 Q 476.443 236.284 478.596 234.836 L 478.596 234.836 L 478.596 234.836 Q 480.748 233.388 483.563 233.388 L 483.563 233.388 L 483.563 233.388 Z M 499.452 233.75 L 506.371 251.932 L 513.209 233.75 L 517.152 233.75 L 508.503 255.833 L 504.159 255.833 L 495.51 233.75 L 499.452 233.75 L 499.452 233.75 Z M 541.045 243.565 L 541.045 243.565 Q 541.045 244.731 540.885 245.576 L 540.885 245.576 L 523.226 245.576 L 523.226 245.576 Q 523.346 249.357 525.378 251.248 L 525.378 251.248 L 525.378 251.248 Q 527.409 253.138 530.346 253.138 L 530.346 253.138 L 530.346 253.138 Q 533 253.138 534.79 251.791 L 534.79 251.791 L 534.79 251.791 Q 536.58 250.443 536.983 248.191 L 536.983 248.191 L 540.885 248.191 L 540.885 248.191 Q 540.482 250.483 539.095 252.294 L 539.095 252.294 L 539.095 252.294 Q 537.707 254.104 535.494 255.109 L 535.494 255.109 L 535.494 255.109 Q 533.282 256.115 530.506 256.115 L 530.506 256.115 L 530.506 256.115 Q 527.329 256.115 524.875 254.747 L 524.875 254.747 L 524.875 254.747 Q 522.421 253.38 521.033 250.825 L 521.033 250.825 L 521.033 250.825 Q 519.646 248.271 519.646 244.812 L 519.646 244.812 L 519.646 244.812 Q 519.646 241.352 521.033 238.778 L 521.033 238.778 L 521.033 238.778 Q 522.421 236.203 524.875 234.836 L 524.875 234.836 L 524.875 234.836 Q 527.329 233.468 530.506 233.468 L 530.506 233.468 L 530.506 233.468 Q 533.724 233.468 536.118 234.836 L 536.118 234.836 L 536.118 234.836 Q 538.511 236.203 539.778 238.496 L 539.778 238.496 L 539.778 238.496 Q 541.045 240.789 541.045 243.565 L 541.045 243.565 L 541.045 243.565 Z M 537.345 243.806 L 537.345 243.806 Q 537.465 241.352 536.54 239.703 L 536.54 239.703 L 536.54 239.703 Q 535.615 238.054 534.006 237.249 L 534.006 237.249 L 534.006 237.249 Q 532.397 236.445 530.506 236.445 L 530.506 236.445 L 530.506 236.445 Q 527.49 236.445 525.438 238.315 L 525.438 238.315 L 525.438 238.315 Q 523.387 240.186 523.226 243.806 L 523.226 243.806 L 537.345 243.806 L 537.345 243.806 Z M 557.457 233.388 L 557.457 233.388 Q 561.319 233.388 563.692 235.862 L 563.692 235.862 L 563.692 235.862 Q 566.066 238.335 566.066 243.002 L 566.066 243.002 L 566.066 255.833 L 562.405 255.833 L 562.405 243.323 L 562.405 243.323 Q 562.405 240.025 560.716 238.255 L 560.716 238.255 L 560.716 238.255 Q 559.026 236.485 556.13 236.485 L 556.13 236.485 L 556.13 236.485 Q 553.113 236.485 551.303 238.436 L 551.303 238.436 L 551.303 238.436 Q 549.493 240.387 549.493 244.128 L 549.493 244.128 L 549.493 255.833 L 545.832 255.833 L 545.832 233.75 L 549.493 233.75 L 549.493 238.979 L 549.493 238.979 Q 550.338 236.284 552.49 234.836 L 552.49 234.836 L 552.49 234.836 Q 554.642 233.388 557.457 233.388 L 557.457 233.388 L 557.457 233.388 Z M 579.984 252.615 L 582.236 252.615 L 582.236 255.833 L 579.501 255.833 L 579.501 255.833 Q 576.122 255.833 574.453 254.224 L 574.453 254.224 L 574.453 254.224 Q 572.783 252.615 572.783 248.834 L 572.783 248.834 L 572.783 236.927 L 569.485 236.927 L 569.485 233.75 L 572.783 233.75 L 572.783 228.239 L 576.484 228.239 L 576.484 233.75 L 582.196 233.75 L 582.196 236.927 L 576.484 236.927 L 576.484 248.915 L 576.484 248.915 Q 576.484 251.047 577.268 251.831 L 577.268 251.831 L 577.268 251.831 Q 578.053 252.615 579.984 252.615 L 579.984 252.615 L 579.984 252.615 Z M 596.717 233.468 L 596.717 233.468 Q 599.895 233.468 602.409 234.836 L 602.409 234.836 L 602.409 234.836 Q 604.923 236.203 606.351 238.778 L 606.351 238.778 L 606.351 238.778 Q 607.779 241.352 607.779 244.812 L 607.779 244.812 L 607.779 244.812 Q 607.779 248.271 606.351 250.825 L 606.351 250.825 L 606.351 250.825 Q 604.923 253.38 602.409 254.747 L 602.409 254.747 L 602.409 254.747 Q 599.895 256.115 596.717 256.115 L 596.717 256.115 L 596.717 256.115 Q 593.54 256.115 591.025 254.747 L 591.025 254.747 L 591.025 254.747 Q 588.511 253.38 587.063 250.825 L 587.063 250.825 L 587.063 250.825 Q 585.615 248.271 585.615 244.812 L 585.615 244.812 L 585.615 244.812 Q 585.615 241.352 587.063 238.778 L 587.063 238.778 L 587.063 238.778 Q 588.511 236.203 591.025 234.836 L 591.025 234.836 L 591.025 234.836 Q 593.54 233.468 596.717 233.468 L 596.717 233.468 L 596.717 233.468 Z M 596.717 236.686 L 596.717 236.686 Q 594.746 236.686 593.077 237.571 L 593.077 237.571 L 593.077 237.571 Q 591.408 238.456 590.382 240.286 L 590.382 240.286 L 590.382 240.286 Q 589.356 242.117 589.356 244.812 L 589.356 244.812 L 589.356 244.812 Q 589.356 247.467 590.382 249.297 L 590.382 249.297 L 590.382 249.297 Q 591.408 251.127 593.077 252.012 L 593.077 252.012 L 593.077 252.012 Q 594.746 252.897 596.717 252.897 L 596.717 252.897 L 596.717 252.897 Q 598.688 252.897 600.358 252.012 L 600.358 252.012 L 600.358 252.012 Q 602.027 251.127 603.053 249.297 L 603.053 249.297 L 603.053 249.297 Q 604.079 247.467 604.079 244.812 L 604.079 244.812 L 604.079 244.812 Q 604.079 242.117 603.053 240.286 L 603.053 240.286 L 603.053 240.286 Q 602.027 238.456 600.358 237.571 L 600.358 237.571 L 600.358 237.571 Q 598.688 236.686 596.717 236.686 L 596.717 236.686 L 596.717 236.686 Z M 624.191 233.388 L 624.191 233.388 Q 628.053 233.388 630.426 235.862 L 630.426 235.862 L 630.426 235.862 Q 632.8 238.335 632.8 243.002 L 632.8 243.002 L 632.8 255.833 L 629.139 255.833 L 629.139 243.323 L 629.139 243.323 Q 629.139 240.025 627.45 238.255 L 627.45 238.255 L 627.45 238.255 Q 625.76 236.485 622.864 236.485 L 622.864 236.485 L 622.864 236.485 Q 619.847 236.485 618.037 238.436 L 618.037 238.436 L 618.037 238.436 Q 616.227 240.387 616.227 244.128 L 616.227 244.128 L 616.227 255.833 L 612.566 255.833 L 612.566 233.75 L 616.227 233.75 L 616.227 238.979 L 616.227 238.979 Q 617.071 236.284 619.223 234.836 L 619.223 234.836 L 619.223 234.836 Q 621.376 233.388 624.191 233.388 L 624.191 233.388 L 624.191 233.388 Z M 645.35 233.468 L 645.35 233.468 Q 649.091 233.468 651.364 235.419 L 651.364 235.419 L 651.364 235.419 Q 653.636 237.37 654.119 240.668 L 654.119 240.668 L 650.619 240.668 L 650.619 240.668 Q 650.378 238.697 648.99 237.43 L 648.99 237.43 L 648.99 237.43 Q 647.602 236.163 645.269 236.163 L 645.269 236.163 L 645.269 236.163 Q 643.298 236.163 642.192 237.108 L 642.192 237.108 L 642.192 237.108 Q 641.086 238.054 641.086 239.663 L 641.086 239.663 L 641.086 239.663 Q 641.086 240.87 641.83 241.614 L 641.83 241.614 L 641.83 241.614 Q 642.574 242.358 643.681 242.74 L 643.681 242.74 L 643.681 242.74 Q 644.787 243.122 646.718 243.565 L 646.718 243.565 L 646.718 243.565 Q 649.171 244.128 650.68 244.711 L 650.68 244.711 L 650.68 244.711 Q 652.188 245.294 653.254 246.582 L 653.254 246.582 L 653.254 246.582 Q 654.32 247.869 654.32 250.041 L 654.32 250.041 L 654.32 250.041 Q 654.32 252.736 652.289 254.426 L 652.289 254.426 L 652.289 254.426 Q 650.257 256.115 646.878 256.115 L 646.878 256.115 L 646.878 256.115 Q 642.936 256.115 640.442 254.224 L 640.442 254.224 L 640.442 254.224 Q 637.948 252.334 637.506 248.955 L 637.506 248.955 L 641.046 248.955 L 641.046 248.955 Q 641.247 250.966 642.796 252.213 L 642.796 252.213 L 642.796 252.213 Q 644.344 253.46 646.878 253.46 L 646.878 253.46 L 646.878 253.46 Q 648.769 253.46 649.835 252.495 L 649.835 252.495 L 649.835 252.495 Q 650.901 251.529 650.901 249.961 L 650.901 249.961 L 650.901 249.961 Q 650.901 248.673 650.137 247.909 L 650.137 247.909 L 650.137 247.909 Q 649.372 247.145 648.246 246.742 L 648.246 246.742 L 648.246 246.742 Q 647.12 246.34 645.149 245.898 L 645.149 245.898 L 645.149 245.898 Q 642.695 245.335 641.227 244.771 L 641.227 244.771 L 641.227 244.771 Q 639.759 244.208 638.733 242.981 L 638.733 242.981 L 638.733 242.981 Q 637.707 241.755 637.707 239.663 L 637.707 239.663 L 637.707 239.663 Q 637.707 236.887 639.759 235.178 L 639.759 235.178 L 639.759 235.178 Q 641.81 233.468 645.35 233.468 L 645.35 233.468 L 645.35 233.468 Z"/></g></svg>