<svg xmlns="http://www.w3.org/2000/svg" xmlns:xlink="http://www.w3.org/1999/xlink" style="isolation:isolate" width="500pt" height="500pt" viewBox="0 0 500 500"><defs><clipPath id="_clipPath_YnbO2ERh4YMFdpZT9YzYjwDCd5Spxlg9"><rect width="500" height="500"/></clipPath></defs><g clip-path="url(#_clipPath_YnbO2ERh4YMFdpZT9YzYjwDCd5Spxlg9)"><path fill="#FFF" fill-rule="evenodd" d="M 0 0 L 500 0 L 500 500 L 0 500 L 0 0 Z M 89.385 140.154 L 141.692 140.154 L 141.692 265.692 L 141.692 265.692 Q 141.692 287.231 151.385 298.615 L 151.385 298.615 L 151.385 298.615 Q 161.077 310 179.538 310 L 179.538 310 L 179.538 310 Q 198 310 207.692 298.615 L 207.692 298.615 L 207.692 298.615 Q 217.384 287.231 217.384 265.692 L 217.384 265.692 L 217.384 140.154 L 270 140.154 L 270 265.692 L 270 265.692 Q 270 296.462 258 317.538 L 258 317.538 L 258 317.538 Q 246 338.615 225.231 349.231 L 225.231 349.231 L 225.231 349.231 Q 204.461 359.846 178.308 359.846 L 178.308 359.846 L 178.308 359.846 Q 152.154 359.846 132.154 349.385 L 132.154 349.385 L 132.154 349.385 Q 112.154 338.923 100.769 317.692 L 100.769 317.692 L 100.769 317.692 Q 89.385 296.462 89.385 265.692 L 89.385 265.692 L 89.385 140.154 Z M 410.615 140.154 L 410.615 357.692 L 358 357.692 L 270 224.154 L 270 224.154 L 270 140.154 L 358 274.923 L 358 140.154 L 410.615 140.154 Z"/></g></svg>